# xmcd
#
# Track frame offsets:
#	150
#	17385
#	37840
#	49845
#	77770
#	93772
#	118240
#	132272
#	150117
#	178855
#	194105
#	209390
#	231922
#	249895
#	268082
#	285410
#	303977
#
# Disc length: 4257 seconds
#
# Revision: 0
# Processed by: cddbd v1.5.2PL0 Copyright (c) Steve Scherf et al.
# Submitted via: audiograbber 1.83.01
#
DISCID=dc109f11
DTITLE=Nelson, Tracy - The best of Tracy Nelson - Mother Earth
DYEAR=1972
DGENRE=Rock
TTITLE0=Down so low
TTITLE1=Cry on
TTITLE2=Goodnight Nelda Grebe, the telephone company has cut us off
TTITLE3=Mother Earth
TTITLE4=Won't be long
TTITLE5=Need your love so bad
TTITLE6=The soul of a man
TTITLE7=Satisfied
TTITLE8=Ruler of my heart
TTITLE9=Temptation took control of me and I fell
TTITLE10=Soul of sadness
TTITLE11=Tonight, the sky's about to cry
TTITLE12=I'll be long gone
TTITLE13=Seven bridges road
TTITLE14=Tennessee blues
TTITLE15=Thinking of you
TTITLE16=I don't do that kind of thing anymore
EXTD=
EXTT0=
EXTT1=
EXTT2=
EXTT3=
EXTT4=
EXTT5=
EXTT6=
EXTT7=
EXTT8=
EXTT9=
EXTT10=
EXTT11=
EXTT12=
EXTT13=
EXTT14=
EXTT15=
EXTT16=
PLAYORDER=
